<?xml version="1.0" standalone="no"?>
<!DOCTYPE svg PUBLIC "-//W3C//DTD SVG 20010904//EN"
 "http://www.w3.org/TR/2001/REC-SVG-20010904/DTD/svg10.dtd">
<svg version="1.0" xmlns="http://www.w3.org/2000/svg"
 width="512.000000pt" height="512.000000pt" viewBox="0 0 512.000000 512.000000"
 preserveAspectRatio="xMidYMid meet">
<metadata>
Created by potrace 1.14, written by Peter Selinger 2001-2017
</metadata>
<g transform="translate(0.000000,512.000000) scale(0.100000,-0.100000)"
fill="#000000" stroke="none">
<path d="M390 2560 l0 -650 165 0 c150 0 165 2 166 18 0 9 1 110 1 224 l1 208
251 2 251 3 0 150 0 150 -195 2 c-107 1 -220 2 -251 2 l-56 1 1 113 1 112 260
2 c143 1 271 2 285 2 l25 1 1 155 0 155 -453 0 -453 0 0 -650z"/>
<path d="M1450 2560 l0 -650 165 0 c164 0 165 0 166 23 1 12 1 105 1 207 0
180 1 186 21 187 11 1 27 -2 36 -7 9 -4 81 -98 161 -209 l145 -200 209 -1
c198 0 208 1 194 18 -20 22 -22 25 -186 232 -76 96 -141 180 -145 187 -5 7 9
20 38 34 25 13 61 37 79 53 34 32 84 105 92 135 2 9 10 39 18 66 17 61 15 247
-4 290 -53 124 -106 186 -194 228 -104 50 -156 56 -488 57 l-308 1 0 -651z
m608 322 c87 -45 103 -170 29 -235 -34 -29 -87 -38 -197 -35 l-105 3 -1 142
c-2 165 -17 149 139 146 75 -1 107 -6 135 -21z"/>
<path d="M2640 2560 l0 -650 165 0 165 0 0 650 0 650 -165 0 -165 0 0 -650z"/>
<path d="M3094 3055 c0 -102 3 -155 10 -156 6 0 84 -1 174 -1 l162 0 0 -494 0
-494 166 2 166 3 2 490 1 490 145 2 c80 1 157 2 172 2 l27 1 0 155 0 155 -513
0 -513 0 1 -155z"/>
<path d="M4250 2560 l0 -650 165 0 165 0 0 650 0 650 -165 0 -165 0 0 -650z"/>
</g>
</svg>
