<svg width="72" height="81" viewBox="0 0 72 81" fill="none" xmlns="http://www.w3.org/2000/svg">
<path d="M60 50.625V60.75H69V67.5H60V77.625H54V67.5H45V60.75H54V50.625H60ZM69 33.75L68.88 34.7288L66 46.575C63.2621 44.8026 60.158 43.8712 56.9991 43.8744C53.8403 43.8775 50.7377 44.815 48.0025 46.5928C45.2673 48.3707 42.9958 50.9264 41.4157 54.0036C39.8356 57.0808 39.0025 60.5713 39 64.125C39 66.4875 39.39 68.7488 40.05 70.875H16.5C14.16 70.875 12.12 69.3563 11.13 67.1625L3.3 35.235L3 33.75C3 31.8938 4.35 30.375 6 30.375H19.74L33.54 8.20125C33.8166 7.74858 34.1875 7.37897 34.6203 7.1247C35.0531 6.87043 35.5347 6.73923 36.0229 6.74255C36.5112 6.74588 36.9913 6.88364 37.4214 7.1438C37.8514 7.40395 38.2183 7.77859 38.49 8.235L52.26 30.375H66C67.65 30.375 69 31.8938 69 33.75ZM42 50.625C42 46.9125 39.33 43.875 36 43.875C32.67 43.875 30 46.9125 30 50.625C30 54.3375 32.7 57.375 36 57.375C39.3 57.375 42 54.3713 42 50.625ZM45 30.375L36 15.9975L27 30.375H45Z" fill="black"/>
</svg>
